<?xml version="1.0" encoding="UTF-8" standalone="no"?>
<!DOCTYPE svg PUBLIC "-//W3C//DTD SVG 1.1//EN" "http://www.w3.org/Graphics/SVG/1.1/DTD/svg11.dtd">
<svg width="100%" height="100%" viewBox="0 0 3679 3678" version="1.1" xmlns="http://www.w3.org/2000/svg" xmlns:xlink="http://www.w3.org/1999/xlink" xml:space="preserve" xmlns:serif="http://www.serif.com/" style="fill-rule:evenodd;clip-rule:evenodd;stroke-linejoin:round;stroke-miterlimit:2;">
    <g transform="matrix(1,0,0,1,-15605,-5471)">
        <g id="LogoMaster-Color" transform="matrix(0.934943,0,0,1.147224,5119.616264,4949.0131)">
            <rect x="11215" y="455" width="3935" height="3206" style="fill:none;"/>
            <g transform="matrix(0.936438,0,0,0.895241,286.348999,78.173578)">
                <path d="M15720.263,455C15749.898,455 15778.318,465.035 15799.273,482.898C15820.228,500.762 15832,524.989 15832,550.251C15832,1050.735 15832,3372.265 15832,3872.749C15832,3898.011 15820.228,3922.238 15799.273,3940.102C15778.318,3957.965 15749.898,3968 15720.263,3968C15133.16,3968 12409.84,3968 11822.737,3968C11793.102,3968 11764.682,3957.965 11743.727,3940.102C11722.772,3922.238 11711,3898.011 11711,3872.749C11711,3372.265 11711,1050.735 11711,550.251C11711,524.989 11722.772,500.762 11743.727,482.898C11764.682,465.035 11793.102,455 11822.737,455C12409.84,455 15133.16,455 15720.263,455Z" style="fill:rgb(15,22,0);"/>
            </g>
            <g transform="matrix(10.297242,0,0,8.391851,-5750.245931,-16852.909026)">
                <path d="M1786.245,2183.329C1814.331,2183.329 1836.539,2205.972 1836.539,2233.623L1836.539,2241.678C1836.539,2269.329 1814.331,2291.972 1786.245,2291.972L1739.434,2291.972L1739.434,2368.611L1706.776,2368.611L1706.776,2183.329L1786.245,2183.329ZM1780.802,2215.769L1739.434,2215.769L1739.434,2259.532L1780.802,2259.532C1796.26,2259.532 1803.227,2251.258 1803.227,2237.759C1803.227,2224.696 1796.042,2215.769 1780.802,2215.769ZM1968.521,2344.384L1968.521,2368.611L1836.012,2368.611L1836.012,2344.384L1968.521,2344.384Z" style="fill:url(#_Linear1);"/>
            </g>
        </g>
    </g>
    <defs>
        <linearGradient id="_Linear1" x1="0" y1="0" x2="1" y2="0" gradientUnits="userSpaceOnUse" gradientTransform="matrix(301.277375,0,0,185.282406,1706.775964,2275.969741)"><stop offset="0" style="stop-color:rgb(174,235,41);stop-opacity:1"/><stop offset="1" style="stop-color:rgb(253,253,115);stop-opacity:1"/></linearGradient>
    </defs>
</svg>
