<?xml version="1.0" encoding="UTF-8" standalone="no"?>
<!DOCTYPE svg PUBLIC "-//W3C//DTD SVG 1.1//EN" "http://www.w3.org/Graphics/SVG/1.1/DTD/svg11.dtd">
<svg width="100%" height="100%" viewBox="0 0 2833 609" version="1.1" xmlns="http://www.w3.org/2000/svg" xmlns:xlink="http://www.w3.org/1999/xlink" xml:space="preserve" xmlns:serif="http://www.serif.com/" style="fill-rule:evenodd;clip-rule:evenodd;stroke-linejoin:round;stroke-miterlimit:2;">
    <g transform="matrix(1,0,0,1,-20271,-7087)">
        <g id="LogoMaster-Color2" transform="matrix(0.770046,0,0,0.165579,5382.92661,6181.116639)">
            <rect x="19334" y="5471" width="3679" height="3678" style="fill:none;"/>
            <g transform="matrix(2.250264,0,0,10.465132,15670.529424,-16508.322943)">
                <path d="M1786.245,2183.329C1814.331,2183.329 1836.539,2205.972 1836.539,2233.623L1836.539,2241.678C1836.539,2269.329 1814.331,2291.972 1786.245,2291.972L1739.434,2291.972L1739.434,2368.611L1706.776,2368.611L1706.776,2183.329L1786.245,2183.329ZM1780.802,2215.769L1739.434,2215.769L1739.434,2259.532L1780.802,2259.532C1796.26,2259.532 1803.227,2251.258 1803.227,2237.759C1803.227,2224.696 1796.042,2215.769 1780.802,2215.769ZM1893.582,2291.319L1893.582,2337.259L1985.897,2337.259L1985.897,2368.611L1858.529,2368.611L1858.529,2183.329L1985.897,2183.329L1985.897,2214.681L1893.582,2214.681L1893.582,2260.403L1985.897,2260.403L1985.897,2291.319L1893.582,2291.319ZM2109.564,2368.611L2046.642,2247.339L2046.642,2368.611L2013.548,2368.611L2013.548,2183.329L2046.642,2183.329L2109.564,2305.689L2109.564,2183.329L2142.005,2183.329L2142.005,2368.611L2109.564,2368.611ZM2205.58,2368.611L2205.58,2217.511L2158.116,2217.511L2158.116,2183.329L2286.573,2183.329L2286.573,2217.511L2238.674,2217.511L2238.674,2368.611L2205.58,2368.611ZM2394.128,2368.611L2387.596,2340.307L2337.738,2340.307L2330.988,2368.611L2298.112,2368.611L2345.576,2183.329L2381.065,2183.329L2426.786,2368.611L2394.128,2368.611ZM2362.34,2237.106L2344.269,2312.874L2381.282,2312.874L2364.082,2237.106L2362.34,2237.106ZM2546.099,2368.611L2483.177,2247.339L2483.177,2368.611L2450.083,2368.611L2450.083,2183.329L2483.177,2183.329L2546.099,2305.689L2546.099,2183.329L2578.539,2183.329L2578.539,2368.611L2546.099,2368.611ZM2603.795,2368.611L2603.795,2183.329L2688.272,2183.329C2712.657,2183.329 2732.252,2205.319 2732.252,2232.316L2732.252,2319.623C2732.252,2346.621 2712.657,2368.611 2688.272,2368.611L2603.795,2368.611ZM2637.76,2334.428L2679.998,2334.428C2690.231,2334.428 2698.505,2325.284 2698.505,2313.962L2698.505,2237.759C2698.505,2226.655 2690.231,2217.293 2679.998,2217.293L2637.76,2217.293L2637.76,2334.428ZM2852.435,2368.611L2793.215,2293.714L2793.215,2368.611L2758.814,2368.611L2758.814,2183.329L2838.283,2183.329C2866.369,2183.329 2888.577,2205.972 2888.577,2233.623L2888.577,2241.678C2888.577,2269.329 2866.369,2291.972 2838.283,2291.972L2828.921,2291.972L2891.843,2368.611L2852.435,2368.611ZM2832.84,2215.769L2793.215,2215.769L2793.215,2259.532L2832.84,2259.532C2848.298,2259.532 2855.266,2251.258 2855.266,2237.759C2855.266,2224.696 2848.081,2215.769 2832.84,2215.769ZM3002.229,2368.611L2995.697,2340.307L2945.838,2340.307L2939.089,2368.611L2906.213,2368.611L2953.676,2183.329L2989.165,2183.329L3034.887,2368.611L3002.229,2368.611ZM2970.441,2237.106L2952.37,2312.874L2989.383,2312.874L2972.183,2237.106L2970.441,2237.106ZM3184.18,2344.384L3184.18,2368.611L3051.671,2368.611L3051.671,2344.384L3184.18,2344.384Z" style="fill:url(#_Linear1);"/>
            </g>
        </g>
    </g>
    <defs>
        <linearGradient id="_Linear1" x1="0" y1="0" x2="1" y2="0" gradientUnits="userSpaceOnUse" gradientTransform="matrix(1477.403552,0,0,185.282406,1706.775964,2275.969741)"><stop offset="0" style="stop-color:rgb(174,235,41);stop-opacity:1"/><stop offset="1" style="stop-color:rgb(255,253,117);stop-opacity:1"/></linearGradient>
    </defs>
</svg>
